<?xml version="1.0" standalone="no"?>
<!DOCTYPE svg PUBLIC "-//W3C//DTD SVG 20010904//EN"
 "http://www.w3.org/TR/2001/REC-SVG-20010904/DTD/svg10.dtd">
<svg version="1.0" xmlns="http://www.w3.org/2000/svg"
 width="70.000000pt" height="70.000000pt" viewBox="0 0 70.000000 70.000000"
 preserveAspectRatio="xMidYMid meet">
<metadata>
Created by potrace 1.11, written by Peter Selinger 2001-2013
</metadata>
<g transform="translate(0.000000,70.000000) scale(0.100000,-0.100000)"
fill="#000000" stroke="none">
<path d="M250 662 c-96 -29 -182 -100 -222 -181 -17 -37 -22 -63 -22 -131 0
-73 4 -92 27 -137 24 -46 60 -89 110 -130 50 -41 180 -59 260 -36 38 11 52 12
63 2 8 -6 16 -10 17 -8 2 2 16 24 31 48 l28 44 49 -51 c27 -29 53 -52 58 -52
4 0 16 9 25 19 17 19 16 21 -33 72 -28 29 -51 55 -51 58 0 4 20 17 45 30 25
13 45 27 45 31 0 5 -13 13 -29 18 -27 10 -28 13 -22 49 7 34 6 61 -3 113 -1 8
-11 35 -23 60 -35 78 -119 153 -191 172 -42 11 -139 17 -162 10z"/>
</g>
</svg>
