<?xml version="1.0" standalone="no"?>
<!DOCTYPE svg PUBLIC "-//W3C//DTD SVG 20010904//EN"
 "http://www.w3.org/TR/2001/REC-SVG-20010904/DTD/svg10.dtd">
<svg version="1.0" xmlns="http://www.w3.org/2000/svg"
 width="96.000000pt" height="96.000000pt" viewBox="0 0 96.000000 96.000000"
 preserveAspectRatio="xMidYMid meet">
<metadata>
Created by potrace 1.11, written by Peter Selinger 2001-2013
</metadata>
<g transform="translate(0.000000,96.000000) scale(0.100000,-0.100000)"
fill="#000000" stroke="none">
<path d="M120 540 l0 -260 150 0 150 0 0 -30 0 -30 -70 0 c-58 0 -71 -3 -80
-19 -5 -11 -10 -24 -10 -30 0 -8 71 -11 220 -11 149 0 220 3 220 11 0 6 -5 19
-10 30 -9 16 -22 19 -80 19 l-70 0 0 30 0 30 150 0 150 0 0 260 0 260 -360 0
-360 0 0 -260z"/>
</g>
</svg>
